<svg width="45" height="45" viewBox="0 0 45 45" fill="none" xmlns="http://www.w3.org/2000/svg">
<rect width="45" height="45" rx="4" fill="#00013D"/>
<path d="M32.625 31.5V15.75C32.625 14.5091 31.6159 13.5 30.375 13.5H28.125V11.25H25.875V13.5H19.125V11.25H16.875V13.5H14.625C13.3841 13.5 12.375 14.5091 12.375 15.75V31.5C12.375 32.7409 13.3841 33.75 14.625 33.75H30.375C31.6159 33.75 32.625 32.7409 32.625 31.5ZM19.125 29.25H16.875V27H19.125V29.25ZM19.125 24.75H16.875V22.5H19.125V24.75ZM23.625 29.25H21.375V27H23.625V29.25ZM23.625 24.75H21.375V22.5H23.625V24.75ZM28.125 29.25H25.875V27H28.125V29.25ZM28.125 24.75H25.875V22.5H28.125V24.75ZM30.375 19.125H14.625V16.875H30.375V19.125Z" fill="white"/>
</svg>
