<svg width="48" height="48" viewBox="0 0 48 48" fill="none" xmlns="http://www.w3.org/2000/svg">
<path d="M6.57088 22.9075C6.98917 22.0466 7.86234 21.5 8.81955 21.5H39.1805C40.1377 21.5 41.0108 22.0466 41.4291 22.9075L43.8583 27.9075C44.665 29.568 43.4556 31.5 41.6096 31.5H6.39039C4.54437 31.5 3.33504 29.568 4.14173 27.9075L6.57088 22.9075Z" stroke="#00015C" stroke-width="3"/>
<path d="M17.5 26.5C17.5 26.9263 17.1831 27.4174 16.4392 27.8307C15.7122 28.2346 14.674 28.5 13.5 28.5C12.326 28.5 11.2878 28.2346 10.5608 27.8307C9.81694 27.4174 9.5 26.9263 9.5 26.5C9.5 26.0737 9.81694 25.5826 10.5608 25.1693C11.2878 24.7654 12.326 24.5 13.5 24.5C14.674 24.5 15.7122 24.7654 16.4392 25.1693C17.1831 25.5826 17.5 26.0737 17.5 26.5Z" stroke="#9A0003"/>
<path d="M37.5 26.5C37.5 26.9263 37.1831 27.4174 36.4392 27.8307C35.7122 28.2346 34.674 28.5 33.5 28.5C32.326 28.5 31.2878 28.2346 30.5608 27.8307C29.8169 27.4174 29.5 26.9263 29.5 26.5C29.5 26.0737 29.8169 25.5826 30.5608 25.1693C31.2878 24.7654 32.326 24.5 33.5 24.5C34.674 24.5 35.7122 24.7654 36.4392 25.1693C37.1831 25.5826 37.5 26.0737 37.5 26.5Z" stroke="#9A0003"/>
<path d="M37 31H40V45.5C40 46.3284 39.3284 47 38.5 47C37.6716 47 37 46.3284 37 45.5V31Z" stroke="#00015C" stroke-width="2"/>
<path d="M8 31H11V45.5C11 46.3284 10.3284 47 9.5 47C8.67157 47 8 46.3284 8 45.5V31Z" stroke="#00015C" stroke-width="2"/>
<path d="M10 21V23" stroke="#00015C" stroke-width="2" stroke-linecap="round"/>
<path d="M8 14H12V18C12 19.1046 11.1046 20 10 20C8.89543 20 8 19.1046 8 18V14Z" stroke="#9A0003" stroke-width="2"/>
<path d="M39 22V24" stroke="#00015C" stroke-width="2" stroke-linecap="round"/>
<path d="M37 15H41V19C41 20.1046 40.1046 21 39 21C37.8954 21 37 20.1046 37 19V15Z" stroke="#9A0003" stroke-width="2"/>
</svg>
