<svg width="48" height="48" viewBox="0 0 48 48" fill="none" xmlns="http://www.w3.org/2000/svg">
<path d="M43 31L42.9428 31.0686C40.0311 34.5627 39.8441 39.5817 42.4877 43.2828L43 44" stroke="#00015C" stroke-width="3" stroke-linecap="round"/>
<path d="M7 31L7.05716 31.0686C9.96893 34.5627 10.1559 39.5817 7.51228 43.2828L7 44" stroke="#00015C" stroke-width="3" stroke-linecap="round"/>
<path d="M37 31L36.9428 31.0686C34.0311 34.5627 33.8441 39.5817 36.4877 43.2828L37 44" stroke="#00015C" stroke-width="3" stroke-linecap="round"/>
<path d="M13 31L13.0572 31.0686C15.9689 34.5627 16.1559 39.5817 13.5123 43.2828L13 44" stroke="#00015C" stroke-width="3" stroke-linecap="round"/>
<path d="M27 11.0179L21 11" stroke="#9A0003" stroke-width="3" stroke-linecap="round"/>
<path d="M1.5 9C1.5 7.61929 2.61929 6.5 4 6.5H44C45.3807 6.5 46.5 7.61929 46.5 9V23C46.5 24.3807 45.3807 25.5 44 25.5H4C2.61929 25.5 1.5 24.3807 1.5 23V9Z" stroke="#00015C" stroke-width="3"/>
<path d="M3 19L47 19" stroke="#00015C" stroke-width="3" stroke-linecap="round"/>
</svg>
