<svg width="48" height="48" viewBox="0 0 48 48" fill="none" xmlns="http://www.w3.org/2000/svg">
<mask id="path-1-inside-1" fill="white">
<path fill-rule="evenodd" clip-rule="evenodd" d="M18.3333 9C17.5259 9 16.7977 9.48548 16.4872 10.2308L14.0833 16H8C3.58172 16 0 19.5817 0 24V38C0 42.4183 3.58172 46 8 46H40C44.4183 46 48 42.4183 48 38V24C48 19.5817 44.4183 16 40 16H34.125L31.9867 10.2978C31.6939 9.51715 30.9477 9 30.114 9H24.25H18.3333Z"/>
</mask>
<path d="M16.4872 10.2308L13.7179 9.07692V9.07692L16.4872 10.2308ZM14.0833 16V19H16.0833L16.8526 17.1538L14.0833 16ZM34.125 16L31.316 17.0534L32.046 19H34.125V16ZM31.9867 10.2978L34.7956 9.24438V9.24438L31.9867 10.2978ZM19.2564 11.3846C19.1011 11.7573 18.737 12 18.3333 12V6C16.3148 6 14.4943 7.21369 13.7179 9.07692L19.2564 11.3846ZM16.8526 17.1538L19.2564 11.3846L13.7179 9.07692L11.3141 14.8462L16.8526 17.1538ZM8 19H14.0833V13H8V19ZM3 24C3 21.2386 5.23858 19 8 19V13C1.92487 13 -3 17.9249 -3 24H3ZM3 38V24H-3V38H3ZM8 43C5.23858 43 3 40.7614 3 38H-3C-3 44.0751 1.92487 49 8 49V43ZM40 43H8V49H40V43ZM45 38C45 40.7614 42.7614 43 40 43V49C46.0751 49 51 44.0751 51 38H45ZM45 24V38H51V24H45ZM40 19C42.7614 19 45 21.2386 45 24H51C51 17.9249 46.0751 13 40 13V19ZM34.125 19H40V13H34.125V19ZM29.1777 11.3511L31.316 17.0534L36.934 14.9466L34.7956 9.24438L29.1777 11.3511ZM30.114 12C29.6972 12 29.324 11.7414 29.1777 11.3511L34.7956 9.24438C34.0638 7.29286 32.1982 6 30.114 6V12ZM24.25 12H30.114V6H24.25V12ZM18.3333 12H24.25V6H18.3333V12Z" fill="#00015C" mask="url(#path-1-inside-1)"/>
<circle cx="24" cy="30" r="6.5" stroke="#9A0003" stroke-width="3"/>
<path d="M34 22L41 22" stroke="#9A0003" stroke-width="2" stroke-linecap="round"/>
</svg>
