<svg width="27" height="27" viewBox="0 0 27 27" fill="none" xmlns="http://www.w3.org/2000/svg">
<path d="M23.625 22.5V6.75C23.625 5.50912 22.6159 4.5 21.375 4.5H19.125V2.25H16.875V4.5H10.125V2.25H7.875V4.5H5.625C4.38412 4.5 3.375 5.50912 3.375 6.75V22.5C3.375 23.7409 4.38412 24.75 5.625 24.75H21.375C22.6159 24.75 23.625 23.7409 23.625 22.5ZM10.125 20.25H7.875V18H10.125V20.25ZM10.125 15.75H7.875V13.5H10.125V15.75ZM14.625 20.25H12.375V18H14.625V20.25ZM14.625 15.75H12.375V13.5H14.625V15.75ZM19.125 20.25H16.875V18H19.125V20.25ZM19.125 15.75H16.875V13.5H19.125V15.75ZM21.375 10.125H5.625V7.875H21.375V10.125Z" fill="white"/>
</svg>
