<svg width="48" height="48" viewBox="0 0 48 48" fill="none" xmlns="http://www.w3.org/2000/svg">
<path d="M41 5L41 16" stroke="#9A0003" stroke-width="3" stroke-linecap="round"/>
<path d="M41 5L38.8016 3.11564C38.0526 2.47366 36.9474 2.47366 36.1984 3.11564L34 5" stroke="#9A0003" stroke-width="3" stroke-linecap="round"/>
<path d="M1.5 20C1.5 18.6193 2.61929 17.5 4 17.5H44C45.3807 17.5 46.5 18.6193 46.5 20V24C46.5 25.3807 45.3807 26.5 44 26.5H4C2.61929 26.5 1.5 25.3807 1.5 24V20Z" stroke="#00015C" stroke-width="3"/>
<path d="M4.5 27.5H43.5V38C43.5 39.933 41.933 41.5 40 41.5H8C6.067 41.5 4.5 39.933 4.5 38V27.5Z" stroke="#00015C" stroke-width="3"/>
<path d="M11 43V46" stroke="#00015C" stroke-width="3" stroke-linecap="round"/>
<path d="M37 43V46" stroke="#00015C" stroke-width="3" stroke-linecap="round"/>
</svg>
