<svg width="48" height="48" viewBox="0 0 48 48" fill="none" xmlns="http://www.w3.org/2000/svg">
<rect width="48" height="48" fill="white"/>
<path d="M33.5 40.5C33.5 41.0283 33.2565 41.657 32.5571 42.3657C31.8514 43.0808 30.7558 43.7936 29.2835 44.4246C26.3443 45.6842 22.1792 46.5 17.5 46.5C12.8208 46.5 8.65573 45.6842 5.71651 44.4246C4.24423 43.7936 3.14862 43.0808 2.44286 42.3657C1.74346 41.657 1.5 41.0283 1.5 40.5C1.5 39.9717 1.74346 39.343 2.44286 38.6343C3.14862 37.9192 4.24423 37.2064 5.71651 36.5754C8.65573 35.3158 12.8208 34.5 17.5 34.5C22.1792 34.5 26.3443 35.3158 29.2835 36.5754C30.7558 37.2064 31.8514 37.9192 32.5571 38.6343C33.2565 39.343 33.5 39.9717 33.5 40.5Z" stroke="#00015C" stroke-width="3"/>
<path d="M29.5 13.2414C29.5 16.6463 28.0523 23.6432 25.6481 29.8189C24.4509 32.8943 23.0564 35.6593 21.5606 37.6271C20.0155 39.6599 18.6291 40.5 17.5 40.5C16.3709 40.5 14.9845 39.6599 13.4394 37.6271C11.9436 35.6593 10.5491 32.8943 9.35187 29.8189C6.94771 23.6432 5.5 16.6463 5.5 13.2414C5.5 6.78401 10.8451 1.5 17.5 1.5C24.1549 1.5 29.5 6.78401 29.5 13.2414Z" fill="white" stroke="#00015C" stroke-width="3"/>
<circle cx="17" cy="13" r="4.5" stroke="#9A0003" stroke-width="3"/>
</svg>
